<svg id="Layer_1" data-name="Layer 1" xmlns="http://www.w3.org/2000/svg" viewBox="0 0 30.19 28.39"><defs><style>.cls-1,.cls-6{fill:#fff;}.cls-1,.cls-9{stroke:#151833;stroke-miterlimit:10;stroke-width:0.75px;}.cls-2{fill:#151833;}.cls-3{fill:#8fab5c;}.cls-4{fill:#7f9751;}.cls-5{fill:#231f20;}.cls-7{fill:#f7b1af;}.cls-8,.cls-9{fill:none;}</style></defs><title>Greenish Favicon</title><circle class="cls-1" cx="14.19" cy="14.19" r="13.82"/><path class="cls-2" d="M9.29,25.48c0-1.12-1.77-2-2.19-2.26a3.65,3.65,0,0,1,4,.72,5.49,5.49,0,0,1,1.59,3.38l.43,0c-.23-1.43-.61-2.88-1.73-3.64a4.41,4.41,0,0,0-2.88-1c-.82,0-2.15.2-2.54.78a2.66,2.66,0,0,1,1.66.46,2.31,2.31,0,0,1,1.16,1.19,14.17,14.17,0,0,1,.44,2.4l.32,0C9.4,26.59,9.31,25.88,9.29,25.48Z" transform="translate(-0.81 -1.81)"/><path class="cls-2" d="M19.53,26.43a10.42,10.42,0,0,1-1.62-3.14,3,3,0,0,1,2-3.33C22.32,19,22.81,18,22.81,18a3.7,3.7,0,0,1-1.2,1.67c-.65.57-1.95,1.25-.8,1.72.92.35,5.91,1.43,6.37,1.78A23,23,0,0,1,27,19.88a3.62,3.62,0,0,0-.37-2,5.55,5.55,0,0,1-2.41-2.08s-1.37,0-.91-1.22c.33-.91,1.84-.47,1.58.67a1.36,1.36,0,0,0,2.32-.11c.37-.51-1.62-2.46-1.74-1.78,0,.15-1.2.95-1.61-.18-.18-.5.1-.92.76-1.17a1.26,1.26,0,0,1,1.12.33,2.41,2.41,0,0,0,1,.64l1.05.35a6.17,6.17,0,0,0,0,4.3c.17.56.47,3.73.56,5,0,.41-.11,1.31-.51,1.47-1.23.48-4.64-1-7.45-.67-.6.06-.66.48-.66.48a14.66,14.66,0,0,0,1.5,4.32l.29-.16A15.41,15.41,0,0,1,20.1,24a.33.33,0,0,1,0-.19.27.27,0,0,1,.19-.11h.09a15.61,15.61,0,0,1,4.49.47,8.62,8.62,0,0,0,2.92.32h0l.21-.06c.64-.25.58-1.44.58-1.45a35.92,35.92,0,0,0-.53-5.22,2.15,2.15,0,0,1-.12-1c.32-1.18-.6-2.16-.12-3.3l.07-.17-1.07-.47c-.32-.1-.57-.17-.7-.47s-.54-.73-1.47-.59a1.29,1.29,0,0,0-.94,1.49,1,1,0,0,0,.46.63l-.23,0c-.3.06-.73.18-.85.49-.62,1.62,1,1.64,1.08,1.77A4.18,4.18,0,0,0,26,17.82c.54.25.61.61.73,1.21a29.12,29.12,0,0,1,.09,3.59,48.33,48.33,0,0,1-5.49-1.42l-.23-.09c-.3-.12-.34-.2-.35-.22a17.38,17.38,0,0,1,1.29-1.31A2.86,2.86,0,0,0,23.14,17a4.43,4.43,0,0,1-2.67,2.34c-2.8,1-3.21,2.7-3,4.08a10.2,10.2,0,0,0,1.53,3c.14.23,1.12,2.1,1.22,2.32l.36-.15C20.48,28.35,19.66,26.64,19.53,26.43Z" transform="translate(-0.81 -1.81)"/><path class="cls-3" d="M19.74,23.92s.06-.42.66-.48c2.81-.3,6.22,1.15,7.45.67.4-.16.54-1.06.51-1.47-.09-1.3-.39-4.47-.56-5a6.17,6.17,0,0,1,0-4.3L26.77,13a2.41,2.41,0,0,1-1-.64A1.26,1.26,0,0,0,24.66,12c-.66.25-.94.67-.76,1.17.41,1.13,1.59.33,1.61.18.12-.68,2.11,1.27,1.74,1.78a1.36,1.36,0,0,1-2.32.11c.26-1.14-1.25-1.58-1.58-.67-.46,1.25.91,1.22.91,1.22a5.55,5.55,0,0,0,2.41,2.08,3.62,3.62,0,0,1,.37,2,23,23,0,0,0,.14,3.32c-.46-.35-5.45-1.43-6.37-1.78-1.15-.47.15-1.15.8-1.72A3.7,3.7,0,0,0,22.81,18s-.49,1-2.92,1.93a3,3,0,0,0-2,3.33,10.42,10.42,0,0,0,1.62,3.14c.13.21.95,1.92,1.06,2.13l.65-.32A14.66,14.66,0,0,1,19.74,23.92Z" transform="translate(-0.81 -1.81)"/><path class="cls-4" d="M10.69,25.58c.36.1.67.84.91,1.77l1,0a5.49,5.49,0,0,0-1.59-3.38,3.65,3.65,0,0,0-4-.72c.42.24,2.15,1.14,2.19,2.26,0,.4.11,1.11.21,1.95l1.31-.05A9.76,9.76,0,0,0,10.69,25.58Z" transform="translate(-0.81 -1.81)"/><path class="cls-2" d="M10.69,25.58a9.76,9.76,0,0,1,.12,1.8l.79,0C11.36,26.42,11.05,25.68,10.69,25.58Z" transform="translate(-0.81 -1.81)"/><path class="cls-2" d="M13.08,20.57a6.83,6.83,0,0,1-3.57-.28L8,19.89a6.69,6.69,0,0,0-1.61,0h0A2.67,2.67,0,0,0,5,21.05l-.36.48,0-.6A3.13,3.13,0,0,0,3.28,18.1a4.63,4.63,0,0,1-.64-1.74l-.17-.64L2.9,16a2,2,0,0,0,1.63.37A1.79,1.79,0,0,0,6,14.93a2,2,0,0,0-.54-1.81,2.33,2.33,0,0,0-2.06-.59,4.67,4.67,0,0,0-.77.37L3,12.29a2.88,2.88,0,0,1,1.54-1.13c1.43-.44,2.51.86,4,1.24a1.22,1.22,0,0,0,.82-.15,4,4,0,0,1,2.06-1.09A6.68,6.68,0,0,1,13,11.08a.7.7,0,0,0,.21,0c.29-.05.36-.3.47-.78,0-.17.09-.36.15-.55s.07-.21.11-.3a12.05,12.05,0,0,1,.62-1.58,2.83,2.83,0,0,1,2-1.32,1.69,1.69,0,0,1,1,.09l.47.19L17.57,7a2.59,2.59,0,0,0-1.83,2.07,2.27,2.27,0,0,0,.51,1.88,2.37,2.37,0,0,0,1.86.8,2.94,2.94,0,0,0,.51-.05,2.67,2.67,0,0,0,1.94-1.45l.07-.19.18.09c.45.22.32,1.1.29,1.32s0,.74-.05.94A3,3,0,0,0,21.84,15l.4.38-.64-.07a5.5,5.5,0,0,0-1.65,0l-.24.06a4,4,0,0,0-1.88,1.81c-.19.28-.39.57-.6.83A7,7,0,0,1,13.08,20.57Z" transform="translate(-0.81 -1.81)"/><path class="cls-3" d="M20.88,11.78c0-.35.12-1.22-.15-1.35a2.87,2.87,0,0,1-2.58,1.67,2.74,2.74,0,0,1-2.78-3,2.55,2.55,0,0,1,1.81-2.18,2.51,2.51,0,0,0-2.44,1.21A19.82,19.82,0,0,0,14,10.36c-.27.77-.15.87-1,.91a5,5,0,0,0-3.54,1.25c-1,.73-2.57-.56-3.06-.82a2.14,2.14,0,0,0-3,.55,2.34,2.34,0,0,1,2.88,2.59,2.26,2.26,0,0,1-3.41,1.54,5.05,5.05,0,0,0,.56,1.52C4.54,19,5,19.24,5,20.6c.42-.57.75-1.07,1.33-1.22a6.72,6.72,0,0,1,1.7.14l1.55.4c3.15.44,5.21-.07,7.25-2.21.86-.9,1.39-2.18,2.63-2.58A4,4,0,0,1,21.38,15C20.25,13.87,20.77,12.79,20.88,11.78Z" transform="translate(-0.81 -1.81)"/><path class="cls-5" d="M18.68,19.08" transform="translate(-0.81 -1.81)"/><path class="cls-5" d="M7.37,22.15" transform="translate(-0.81 -1.81)"/><circle class="cls-2" cx="17.43" cy="7.45" r="1.44"/><ellipse class="cls-6" cx="18.72" cy="8.24" rx="0.84" ry="0.93" transform="translate(-2.13 10.5) rotate(-35.24)"/><path class="cls-2" d="M30.65,16.76l-7.23-4.64a5.74,5.74,0,1,0-.84,1.24L29.84,18a.76.76,0,0,0,1-.23A.74.74,0,0,0,30.65,16.76Zm-11.39-2.9A4.38,4.38,0,1,1,22.6,8.65,4.39,4.39,0,0,1,19.26,13.86Z" transform="translate(-0.81 -1.81)"/><circle class="cls-2" cx="3.21" cy="12.62" r="0.93"/><ellipse class="cls-6" cx="4.33" cy="13.76" rx="0.54" ry="0.6" transform="translate(-7.95 3.21) rotate(-35.24)"/><path d="M11.68,21.25c-.67.13-1.21.12-2.55-1-.22-.18-.49-.17-1.12,0-.93.2-2.21.11-2.14-1.33A1.57,1.57,0,0,1,7.2,17.65a2.33,2.33,0,0,1,2.17,1c1.76,1.94,3.31,1.75,3.33,1.75l.68-.09-.54.43a2.75,2.75,0,0,1-1.16.55Z" transform="translate(-0.81 -1.81)"/><path class="cls-7" d="M12.72,20.55s-1.72.29-3.49-1.82-3.72-.21-2.91.83a1.18,1.18,0,0,0,1.31.58c1.27-.1,1.28-.68,1.88.15A2.18,2.18,0,0,0,12.72,20.55Z" transform="translate(-0.81 -1.81)"/><path class="cls-2" d="M27.63,14.92a2,2,0,0,0-.15.18,1.36,1.36,0,0,1-.71.42.89.89,0,0,1-.75-.15,1.24,1.24,0,0,1-.23-1.59,1.47,1.47,0,0,1,1-.62,3.09,3.09,0,0,1,.81-.07h0a1.11,1.11,0,0,1,1,.42c.44.63,0,1.73,0,1.78l-.09.22Z" transform="translate(-0.81 -1.81)"/><path class="cls-4" d="M27.65,13.28c-.09,0-1.29-.06-1.69.6A.93.93,0,0,0,26,15.11.84.84,0,0,0,27.32,15c.57-1.05.44-.2.44-.2l.7.44S29.24,13.25,27.65,13.28Z" transform="translate(-0.81 -1.81)"/><circle class="cls-2" cx="10.88" cy="14.81" r="0.34"/><circle class="cls-2" cx="12.45" cy="14.26" r="0.29"/><path class="cls-3" d="M23.76,14.13,25,14.9A.91.91,0,0,0,23.76,14.13Z" transform="translate(-0.81 -1.81)"/><path class="cls-3" d="M23.9,13.16c.36,1,1.33.48,1.57.24l-1.48-1A.77.77,0,0,0,23.9,13.16Z" transform="translate(-0.81 -1.81)"/><path class="cls-2" d="M4.64,25.23c.05,0-.63-.67-.63-.67L4.73,23c.12.38.78,1.81,1.25,1.95a1.56,1.56,0,0,1,1,1.66,1.49,1.49,0,0,1-2.1,1.05A1.33,1.33,0,0,1,4.64,25.23Z" transform="translate(-0.81 -1.81)"/><path class="cls-4" d="M2.58,23.35c.62-.44,3,2.63,2.27,2.24-.42-.21-1.12,1.35.05,1.8a1.2,1.2,0,0,0,1.59-.81,1.45,1.45,0,0,0-.66-1.47,2.36,2.36,0,0,1-1.17-1.52Z" transform="translate(-0.81 -1.81)"/><path class="cls-2" d="M2.26,22.35a1.77,1.77,0,0,0-.57.93,1.21,1.21,0,0,0,.19,1A1.66,1.66,0,0,0,4,24.6a1.46,1.46,0,0,0,.84-1.35,4,4,0,0,0-.17-.55C4.33,21.76,3.05,21.7,2.26,22.35Z" transform="translate(-0.81 -1.81)"/><path class="cls-4" d="M4,22.37a1.12,1.12,0,0,1-.13,1.89,1.16,1.16,0,0,1-1.51-.11,1,1,0,0,1,.18-1.59A1.49,1.49,0,0,1,4,22.37Z" transform="translate(-0.81 -1.81)"/><path class="cls-2" d="M11.68,21.25c-.67.13-1.21.12-2.55-1-.22-.18-.49-.17-1.12,0-.93.2-2.21.11-2.14-1.33A1.57,1.57,0,0,1,7.2,17.65a2.33,2.33,0,0,1,2.17,1c1.76,1.94,3.31,1.75,3.33,1.75l.68-.09-.54.43a2.75,2.75,0,0,1-1.16.55Z" transform="translate(-0.81 -1.81)"/><path class="cls-7" d="M12.44,20.54s-1.61.27-3.27-1.7-3.48-.2-2.72.78c.12.16.25.44,1.17.36,1.18-.09,1.12-.34,1.82.32A2.25,2.25,0,0,0,12.44,20.54Z" transform="translate(-0.81 -1.81)"/><path class="cls-8" d="M27.14,22.46l-.06.11h0S27.13,22.51,27.14,22.46Z" transform="translate(-0.81 -1.81)"/><path class="cls-2" d="M26,24.22l-.06.09.2,0Z" transform="translate(-0.81 -1.81)"/><path class="cls-2" d="M9.24,25.49c-.05-1.14-1.81-2.06-2.24-2.3a3.72,3.72,0,0,1,4,.73c1.22.9,1.62,3.1,1.71,4.1A11.4,11.4,0,0,0,13,29.7c.16,0,.31.05.47.06-.41-1.87-.33-4.88-2.14-6.12a4.49,4.49,0,0,0-2.93-1.06c-.84,0-2.19.2-2.59.8a2.65,2.65,0,0,1,1.69.46,2.41,2.41,0,0,1,1.19,1.21,23.22,23.22,0,0,1,.58,3.58l.33.14C9.44,27.36,9.26,26.09,9.24,25.49Z" transform="translate(-0.81 -1.81)"/><path class="cls-3" d="M10.66,25.59c.62.18,1.08,2.18,1.32,3.94.33.07.67.13,1,.17A11.4,11.4,0,0,1,12.73,28c-.09-1-.49-3.2-1.71-4.1a3.72,3.72,0,0,0-4-.73c.43.24,2.19,1.16,2.24,2.3,0,.6.2,1.87.35,3.28a12.26,12.26,0,0,0,1.2.44A25.42,25.42,0,0,0,10.66,25.59Z" transform="translate(-0.81 -1.81)"/><path class="cls-2" d="M10.66,25.59a25.42,25.42,0,0,1,.13,3.62l.27.08c0-1.34,0-2.7,0-2.66.21,1,.41,1.94.56,2.81l.35.09C11.74,27.77,11.28,25.77,10.66,25.59Z" transform="translate(-0.81 -1.81)"/><path class="cls-6" d="M11.07,26.63s0,1.32,0,2.66q.28.09.57.15C11.48,28.57,11.28,27.61,11.07,26.63Z" transform="translate(-0.81 -1.81)"/><path class="cls-9" d="M22.34,27.71A13.83,13.83,0,0,1,8.21,28" transform="translate(-0.81 -1.81)"/></svg>