<svg id="Layer_1" data-name="Layer 1" xmlns="http://www.w3.org/2000/svg" viewBox="0 0 484.26 309"><defs><style>.cls-1{fill:#e8edea;}.cls-2{fill:#231f20;}.cls-3{fill:#151833;}.cls-4{fill:#8fab5c;}.cls-5{fill:#7f9751;}.cls-6{fill:#fff;}.cls-7{fill:#f7b1af;}</style></defs><title>Greenish Logog</title><circle class="cls-1" cx="242.21" cy="153.37" r="152.59"/><path class="cls-2" d="M250.08,402.23c-84.57,0-153.37-68.8-153.37-153.36S165.51,95.5,250.08,95.5s153.36,68.8,153.36,153.37S334.64,402.23,250.08,402.23Zm0-305.17c-83.71,0-151.81,68.1-151.81,151.81s68.1,151.8,151.81,151.8,151.8-68.1,151.8-151.8S333.78,97.06,250.08,97.06Z" transform="translate(-7.87 -95.5)"/><path class="cls-1" d="M388.92,352.15a.46.46,0,0,1,.25.47l-11.09,39.21a26.71,26.71,0,0,0-.77,3.73,2.93,2.93,0,0,0,.33,1.43c.18.44.64.66,1.37.66q1.88,0,4.95-3.24a62,62,0,0,0,4.44-5.49l1.43,1.21-.55.76a58.35,58.35,0,0,1-6.81,8.3q-4.23,3.94-8.23,3.95a4.81,4.81,0,0,1-3.93-2,7.31,7.31,0,0,1-1.56-4.67,15,15,0,0,1,.22-2.77c.14-.79.42-2,.82-3.48L377.61,362c.11-.44.2-.84.27-1.21a5.76,5.76,0,0,0,.11-1.09c0-1.32-.48-2.14-1.45-2.45a22.68,22.68,0,0,0-5.73-.46V355c3-.36,5.18-.65,6.51-.85l4-.63c1.74-.29,3.4-.62,5-1A6.9,6.9,0,0,1,388.92,352.15Zm-5.18-13.75a6,6,0,0,1-1.6-4.23,6.11,6.11,0,0,1,1.6-4.28,5,5,0,0,1,3.84-1.76,5.09,5.09,0,0,1,3.87,1.76,6.09,6.09,0,0,1,1.62,4.28,6,6,0,0,1-1.62,4.26,5.13,5.13,0,0,1-3.87,1.73A5,5,0,0,1,383.74,338.4Z" transform="translate(-7.87 -95.5)"/><path class="cls-1" d="M398.67,385.57h1.81a35.25,35.25,0,0,0,2.86,9.72q3,5.65,9,5.65a7.48,7.48,0,0,0,5.63-2.36,8.62,8.62,0,0,0,2.28-6.26,11.25,11.25,0,0,0-.58-3.95,12.15,12.15,0,0,0-1.45-2.8l-4.56-6.76q-4.11-6.15-5.16-8.23a13.75,13.75,0,0,1-1.59-6.26,11.92,11.92,0,0,1,3.43-8.43q3.44-3.64,9.75-3.65a22.43,22.43,0,0,1,6.15,1,20.59,20.59,0,0,0,4.72,1,3.11,3.11,0,0,0,2-.55,5.75,5.75,0,0,0,1.21-1.48h1.59l-2.25,15.59h-1.81a24.89,24.89,0,0,0-2.14-8,8.81,8.81,0,0,0-8.35-5,6.7,6.7,0,0,0-4.31,1.51,5.33,5.33,0,0,0-1.89,4.42,8.67,8.67,0,0,0,.85,3.95,56.84,56.84,0,0,0,3.87,6l3.9,5.6a50.08,50.08,0,0,1,4.28,7.09,14,14,0,0,1,1.26,5.93,12.37,12.37,0,0,1-5.05,10,18.6,18.6,0,0,1-12,4.06,31.9,31.9,0,0,1-6.42-.93,41.94,41.94,0,0,0-4.83-.93,2.29,2.29,0,0,0-1.62.49,4.51,4.51,0,0,0-1,1.48h-1.81Z" transform="translate(-7.87 -95.5)"/><path class="cls-1" d="M451.77,328.3l5.73-.8c1.46-.2,2.73-.39,3.8-.58,4.36-.84,6.71-1.29,7-1.37a4.08,4.08,0,0,1,.78-.11c.44.22.66.5.66.83l-13.6,49a130.66,130.66,0,0,1,11.14-14.94q7.57-8.12,13.9-8.12a8.72,8.72,0,0,1,5,1.67c1.61,1.12,2.42,3.12,2.42,6a17.63,17.63,0,0,1-.28,2.69,22.6,22.6,0,0,1-.66,2.91l-7.28,26.3c-.22.73-.4,1.43-.55,2.11a8.57,8.57,0,0,0-.22,1.84,2,2,0,0,0,.44,1.4,1.64,1.64,0,0,0,1.26.47c1.14,0,2.47-.79,4-2.36q1.42-1.49,5.33-6.48l1.43,1.32a56.3,56.3,0,0,1-6.53,8.34q-4.77,4.66-9.6,4.67a5.2,5.2,0,0,1-3.67-1.37,5.14,5.14,0,0,1-1.48-4,9.56,9.56,0,0,1,.08-1.34,8.64,8.64,0,0,1,.3-1.4l8.29-32.18c.07-.29.13-.59.19-.91a6,6,0,0,0,.08-1,2.78,2.78,0,0,0-.82-2.14,3.28,3.28,0,0,0-2.24-.77q-3.66,0-9.23,5.91a76.43,76.43,0,0,0-9.39,12.05,44.21,44.21,0,0,0-3.95,8.18q-1.35,3.84-5.16,17.68h-8.54l18.44-66.6a9.63,9.63,0,0,0,.22-1.21,7.78,7.78,0,0,0,.06-.94c0-1.57-.51-2.51-1.54-2.82a20.27,20.27,0,0,0-5.87-.25Z" transform="translate(-7.87 -95.5)"/><path class="cls-3" d="M196.27,303.94c0-10.06-15.33-18.82-19-21.13,18.11-6.57,29,2.76,35.36,7.82,8.52,6.84,12,21.16,13.19,31h3.89c-1.61-12.94-4.57-26.11-14.33-33.38-6.9-5.12-13.95-10.35-25.62-10.3-7.46,0-19.41,1-23.16,6.16,0,0,5.31-1,14.78,4.68,4.86,2.93,8.54,6.33,10.11,11.09,1.18,3.58,2.27,12.45,3.13,21.75h2.84C196.82,314,196.27,307.58,196.27,303.94Z" transform="translate(-7.87 -95.5)"/><path class="cls-3" d="M288.15,316c-4.39-8-12.44-19.44-13.57-28.82-1.33-11,3.65-24.05,19-29.36,22.26-7.7,27-16.4,27-16.4-3.59,8-6.55,10.64-11.4,14.59-6,4.92-18,10.64-7.72,15.24,8.11,3.53,52.7,14.86,56.75,18.19,0,0-1.06-8.06-.14-30,.58-13.55-2.65-18.29-2.65-18.29-8.2-3.08-14.07-10-21-19.5,0,0-12.34-.2-7.78-11.33,3.31-8.08,16.73-3.62,14,6.57,0,0,10.2,13.62,21-.2,3.52-4.51-13.82-22.74-15.08-16.64-.28,1.37-11.17,8.12-14.43-2.15-1.45-4.55,1.17-8.32,7.26-10.27,3.15-1,7.17.73,9.93,3.3a21.76,21.76,0,0,0,8.68,6.14l9.39,3.48c-6.33,13.68-4.73,26.85-1.67,38.69,1.33,5.16,3,33.78,3.4,45.55.13,3.69-1.49,11.78-5.1,13-11.28,3.93-41.45-10.24-66.87-8.51-5.43.37-6.1,4.1-6.1,4.1,0,10.24,3.42,19.88,7.5,28.2h4.16c-4.72-9.13-8.94-19.49-8.45-27.43V294l0-.15a2.11,2.11,0,0,1,.22-1.41,2.6,2.6,0,0,1,1.83-.94c.22,0,.47-.06.73-.08,13-.88,27.53,2.65,40.36,5.77,10.8,2.62,20.13,4.89,26.14,3.86h0a12.58,12.58,0,0,0,2-.5c5.78-2,5.69-12.74,5.69-12.88-.41-11.63-.37-36-3-47.18-.58-2.45-1.66-6.28-.75-9.18,3.3-10.56-4.67-19.71,0-29.79L368,200l-9.51-4.57a15.78,15.78,0,0,1-6.12-4.51c-1.28-1.33-4.63-6.68-13-5.78-5.19.56-10.38,7.51-9,13.15a9.08,9.08,0,0,0,4,5.77,9.71,9.71,0,0,0-2.08.14c-2.72.46-6.66,1.34-7.84,4.09-6.14,14.38,8.61,15.18,9.09,16.29,2.8,6.5,10.41,13,16.2,16,4.77,2.43,5.29,5.7,6.15,11.12.26,1.6.76,28.22-.34,32.36-14.5-3.41-41.75-11.27-49-14.61l-2-.91c-2.69-1.2-3.05-1.87-3.1-2.05-.17-.64,10.93-10.35,12.06-11.4,5.46-5.07,12.47-13.48,10.44-22.9,0,0-6.12,14.51-24.92,20.21-25.47,7.72-29.81,23.23-28.29,35.77,1.1,9.1,8.84,19.74,12.84,27.25q1.67,3.13,3,6.18h4.66C290.26,319.76,289.26,317.88,288.15,316Z" transform="translate(-7.87 -95.5)"/><path class="cls-4" d="M290.94,293.42s.67-3.73,6.1-4.1c25.42-1.73,55.59,12.44,66.87,8.51,3.61-1.26,5.23-9.35,5.1-13-.41-11.77-2.07-40.39-3.4-45.55-3.06-11.84-4.66-25,1.67-38.69l-9.39-3.48a21.76,21.76,0,0,1-8.68-6.14c-2.76-2.57-6.78-4.31-9.93-3.3-6.09,2-8.71,5.72-7.26,10.27,3.26,10.27,14.15,3.52,14.43,2.15,1.26-6.1,18.6,12.13,15.08,16.64-10.77,13.82-21,.2-21,.2,2.73-10.19-10.69-14.65-14-6.57-4.56,11.13,7.78,11.33,7.78,11.33,7,9.53,12.83,16.42,21,19.5,0,0,3.23,4.74,2.65,18.29-.92,21.92.14,30,.14,30-4.05-3.33-48.64-14.66-56.75-18.19-10.24-4.6,1.69-10.32,7.72-15.24,4.85-4,7.81-6.56,11.4-14.59,0,0-4.71,8.7-27,16.4-15.33,5.31-20.31,18.39-19,29.36,1.13,9.38,9.18,20.84,13.57,28.82,1.11,1.9,2.11,3.78,3,5.64h7.26C294.36,313.3,291,303.66,290.94,293.42Z" transform="translate(-7.87 -95.5)"/><path class="cls-5" d="M208.83,305.29c3.19,1.09,5.71,7.8,7.55,16.33h9.41c-1.22-9.83-4.67-24.15-13.19-31-6.31-5.06-17.25-14.39-35.36-7.82,3.7,2.31,19,11.07,19,21.13,0,3.64.55,10,1.16,17.68h11.83C209.43,313.34,209.37,306.69,208.83,305.29Z" transform="translate(-7.87 -95.5)"/><path class="cls-3" d="M208.83,305.29c.54,1.4.6,8,.43,16.33h7.12C214.54,313.09,212,306.38,208.83,305.29Z" transform="translate(-7.87 -95.5)"/><path class="cls-3" d="M232,261a62.36,62.36,0,0,1-32-3.78l-13.71-4.1a57.68,57.68,0,0,0-14.44-.63l-.36.06c-4.82,1.11-8.51,5.36-12.17,10l-3.38,4.28.37-5.45c.79-11.53-2.38-16.84-11.71-26-2.32-2.27-3.93-9.35-5.25-15.81l-1.23-5.85,3.69,3a18.76,18.76,0,0,0,14.6,3.83,16.28,16.28,0,0,0,13.94-12.72,17.92,17.92,0,0,0-4.28-16.48,20.73,20.73,0,0,0-18.34-6c-2,.31-7.12,3.07-7.12,3.07l3.63-5.4a26.46,26.46,0,0,1,14.27-9.71c13-3.48,22.33,8.65,35.29,12.58a11.07,11.07,0,0,0,7.44-1.1,35.61,35.61,0,0,1,18.87-9.15,58.36,58.36,0,0,1,14.54-.13,8,8,0,0,0,1.91,0c2.62-.4,3.35-2.63,4.51-6.87.42-1.51.9-3.23,1.56-4.94.36-.93.7-1.83,1-2.69a117.81,117.81,0,0,1,6.18-14c3-5.52,10.18-9.91,18.41-11.17a16,16,0,0,1,9,1.14l4.13,1.83-4.31,1.33c-6.69,2.07-15.1,6.87-17.21,18a20.79,20.79,0,0,0,3.92,17.14c3.83,4.79,9.71,7.55,16.56,7.79a24.19,24.19,0,0,0,4.58-.27c9.12-1.39,15.68-7.41,17.92-12.41l.74-1.67,1.61.88c3.94,2.15,2.5,10,2.16,12-.2,1.16-.63,6.64-.78,8.44-.66,8.28-1.28,16.09,6.23,23.81l3.46,3.56-5.73-.82c-6.28-.91-10.81-1.56-14.88-.94a16.54,16.54,0,0,0-2.16.47c-7.77,2.24-12.54,8.76-17.58,15.68-1.8,2.47-3.67,5-5.66,7.32C259.76,251.23,246.53,258.82,232,261Z" transform="translate(-7.87 -95.5)"/><path class="cls-4" d="M305.25,184.46c.46-3.18,1.52-11-.85-12.23-3,6.81-12.29,14.57-23.84,14.17-15.25-.53-26.69-14.18-24-28.35,2.08-11,8.65-16.47,17-19.05-13.05-.41-18.36,4.39-22.36,10.08-2.22,3.16-5,14.27-7.36,20.24-2.65,6.84-1.65,7.81-9.34,7.87-14.17.13-18.78,1-32.23,10-9.35,6.25-23-5.84-27.33-8.37-17.27-10-26.81,4-26.81,4,14.12-2,28.52,9,25,24.23-3.3,14.46-20.76,21.22-31.25,12.78.73,3.48,2.56,11.65,4.58,13.82,9.17,9.83,13.43,12.67,12.59,24.89,4-5,7.09-9.38,12.32-10.59,2.56-.58,11.07.95,15.3,1.87L200.53,254c28.2,5,47,1.11,66.06-17.5,8.05-7.84,13.27-19.15,24.6-22.41,5.15-1.48,9.58-2.08,17.48-.94C298.87,203.07,304,193.45,305.25,184.46Z" transform="translate(-7.87 -95.5)"/><path class="cls-2" d="M283,249.47" transform="translate(-7.87 -95.5)"/><path class="cls-2" d="M180,273.31" transform="translate(-7.87 -95.5)"/><circle class="cls-3" cx="274.4" cy="65.31" r="12.95"/><ellipse class="cls-6" cx="286.96" cy="151.82" rx="7.54" ry="8.36" transform="translate(-44.22 85.83) rotate(-33.1)"/><path class="cls-3" d="M391.63,232.54,328,188.33a51.31,51.31,0,1,0-8,10.92l63.89,44.39a6.76,6.76,0,0,0,7.71-11.1ZM290,202.66a39.52,39.52,0,1,1,31.89-45.89A39.56,39.56,0,0,1,290,202.66Z" transform="translate(-7.87 -95.5)"/><circle class="cls-3" cx="144.59" cy="107.06" r="8.37"/><ellipse class="cls-6" cx="155.49" cy="196.74" rx="4.87" ry="5.41" transform="translate(-90.07 21.33) rotate(-33.1)"/><path d="M219.22,266.63c-6.12.94-11,.72-22.7-9.79-1.91-1.7-4.32-1.71-10-.71-8.45,1.48-19.93.25-18.85-12.66.39-4.59,5.58-9.7,12.38-10.74,4.57-.7,11.62.35,19.22,9.34C214.5,260.12,228.52,259,228.66,259l6.21-.59-5.06,3.64a24.43,24.43,0,0,1-10.59,4.58Z" transform="translate(-7.87 -95.5)"/><path class="cls-7" d="M228.82,260.68s-15.61,2-30.88-17.52c-15.54-19.88-33.45-3.18-26.46,6.5,1.14,1.57,2.72,6,11.57,5.63,11.47-.48,11.81-5.73,16.95,2C208.47,269.94,222.31,265.37,228.82,260.68Z" transform="translate(-7.87 -95.5)"/><path class="cls-3" d="M365,215a15.9,15.9,0,0,0-1.45,1.51,11.56,11.56,0,0,1-6.53,3.6,8.17,8.17,0,0,1-6.7-1.6c-4.3-3.56-4.28-10.34-1.57-14.43,1.81-2.73,5-4.5,9.47-5.27a33.58,33.58,0,0,1,7.26-.36h.2c4.18.06,7.18,1.45,8.91,4.14,3.77,5.86-.46,15.62-.64,16l-.87,2Z" transform="translate(-7.87 -95.5)"/><path class="cls-5" d="M365.7,200.26c-.76,0-11.58-1-15.42,4.82-2.32,3.49-3,7.88.25,11.07,4.09,4.07,9.86,2.32,11.71-.81,5.47-9.23,4-1.65,4-1.65l6.09,4.23S380.05,200.45,365.7,200.26Z" transform="translate(-7.87 -95.5)"/><circle class="cls-3" cx="212.97" cy="129.36" r="3.1"/><circle class="cls-3" cx="227.29" cy="124.99" r="2.63"/><path class="cls-4" d="M330.4,206.55l10.51,7.32A8.24,8.24,0,0,0,330.4,206.55Z" transform="translate(-7.87 -95.5)"/><path class="cls-4" d="M332,197.9c2.86,9,11.77,4.73,14.07,2.67l-13.09-9A7,7,0,0,0,332,197.9Z" transform="translate(-7.87 -95.5)"/><path class="cls-4" d="M8,362.8v-.23c0-22.38,17.43-40.71,41.27-40.71,14.17,0,22.72,3.82,30.93,10.8L69.32,345.81c-6.07-5.06-11.47-8-20.58-8-12.6,0-22.61,11.13-22.61,24.52v.22c0,14.39,9.9,25,23.85,25,6.29,0,11.92-1.58,16.3-4.73V371.57H48.85v-15H83V390.8a51.1,51.1,0,0,1-33.63,12.48C24.9,403.28,8,386.07,8,362.8Z" transform="translate(-7.87 -95.5)"/><path class="cls-3" d="M7.87,362.8a46.93,46.93,0,0,1,1.69-12.19,44.66,44.66,0,0,1,5.15-11.21,40.76,40.76,0,0,1,19-15.55c7.78-3.2,16.44-3.73,24.71-2.66a41.27,41.27,0,0,1,12.15,3.46,45.86,45.86,0,0,1,10.53,7l1,.88-.87,1c-3.67,4.36-7.29,8.76-11,13.09l-.83,1-.93-.8c-3.58-3.09-7.47-5.79-12-7a28.57,28.57,0,0,0-6.91-1,20.77,20.77,0,0,0-6.89.79,22,22,0,0,0-6.27,3,23.51,23.51,0,0,0-5,4.94,25.15,25.15,0,0,0-4.8,13.12,29.53,29.53,0,0,0,.35,7.09,28.8,28.8,0,0,0,2.22,6.72,24.92,24.92,0,0,0,4.06,5.75A22.37,22.37,0,0,0,39,384.34a25.14,25.14,0,0,0,13.71,2.31,25.58,25.58,0,0,0,13-4.64l-.41.8-.17-11.24,1.16,1.16-17.43.17-1.32,0,0-1.35-.11-15v-1.44h1.46L83,355h1.65v1.66l-.05,34.19v.74l-.56.47a56.33,56.33,0,0,1-10.85,7.2,51.28,51.28,0,0,1-12.32,4.22,49.76,49.76,0,0,1-12.93,1,46.66,46.66,0,0,1-12.72-2.33,39.83,39.83,0,0,1-11.42-5.94A36,36,0,0,1,15,386.91a41.26,41.26,0,0,1-5.38-11.53A49.11,49.11,0,0,1,7.87,362.8Zm.31,0A49.51,49.51,0,0,0,10,375.26a39.92,39.92,0,0,0,5.6,11.21,35,35,0,0,0,9,8.63,37.2,37.2,0,0,0,11.22,5.23A44.09,44.09,0,0,0,48,402a49,49,0,0,0,23.77-5.58A53.72,53.72,0,0,0,82,389.59l-.56,1.21-.06-34.19L83,358.26l-34.19-.2,1.45-1.45-.11,15-1.34-1.34,17.43.18h1.18l0,1.15-.17,11.24v.52l-.4.29a27.51,27.51,0,0,1-14,4.58,26.4,26.4,0,0,1-14.37-2.81,23.93,23.93,0,0,1-5.9-4.44,25.91,25.91,0,0,1-4.2-6.07,29.28,29.28,0,0,1-2.23-7c-.14-1.22-.37-2.43-.39-3.65l-.08-1.83.07-1.84a26.16,26.16,0,0,1,4.83-13.75,27,27,0,0,1,5.15-5.31,23.31,23.31,0,0,1,6.59-3.45,22.38,22.38,0,0,1,7.39-1.1,30.89,30.89,0,0,1,7.39.86c4.93,1.15,9.27,4,13,7.05l-1.75.16c3.57-4.44,7.22-8.82,10.82-13.23l.17,1.9a46.89,46.89,0,0,0-9.95-6.52,40.83,40.83,0,0,0-11.35-3.42c-7.91-1.17-16.16-1.07-23.74,1.68a39.48,39.48,0,0,0-19,14.36,42.81,42.81,0,0,0-5.34,10.93A46.48,46.48,0,0,0,8.18,362.8Z" transform="translate(-7.87 -95.5)"/><path class="cls-4" d="M88.43,323.21h36c10,0,17.77,2.81,22.94,8,4.39,4.38,6.75,10.57,6.75,18v.22c0,12.71-6.86,20.7-16.87,24.41l19.23,28.11H136.23l-16.87-25.19H105.75v25.19H88.43Zm34.87,38.24c8.43,0,13.27-4.5,13.27-11.14v-.22c0-7.42-5.18-11.25-13.61-11.25H105.75v22.61Z" transform="translate(-7.87 -95.5)"/><path class="cls-3" d="M88.32,323.1c9.13-.3,18.56-.65,28.13-.85,4.77,0,9.58-.46,14.38.16a31.33,31.33,0,0,1,13.74,4.77,23.16,23.16,0,0,1,9.15,11.49,31,31,0,0,1,1.44,14.51,25.09,25.09,0,0,1-5.71,13.35,27.39,27.39,0,0,1-12,7.92l.32-1q4.66,7.13,9.45,14.16c3.18,4.7,6.46,9.34,9.68,14l.6.86h-1.06c-6.75,0-13.49.21-20.24.31h-.45l-.28-.39q-8.72-12.41-17.29-24.91l1.15.61-13.61.11,1.5-1.49.16,25.19,0,1.66h-1.68c-5.77,0-11.54,0-17.32,0l-1.64,0v-1.62c0-6.66.07-13.32.2-19.95l.33-19.87Zm.22.22,1,39.71.34,19.49c.12,6.49.16,13,.2,19.41l-1.64-1.64c5.78-.05,11.55,0,17.32,0l-1.66,1.66.17-25.19v-1.51l1.48,0,13.61.11h.75l.4.6q8.28,12.69,16.44,25.47l-.72-.38c6.75.1,13.49.28,20.24.31l-.46.88c-3.19-4.7-6.32-9.44-9.55-14.1s-6.48-9.33-9.78-13.95l-.49-.69.82-.33a25.8,25.8,0,0,0,10.92-7.89,22.86,22.86,0,0,0,4.69-12.39,30.42,30.42,0,0,0-1.51-13.26,21.05,21.05,0,0,0-8-10.22,30,30,0,0,0-12.56-4.59c-4.52-.66-9.15-.49-13.75-.66C107.55,324,98.2,323.62,88.54,323.32Z" transform="translate(-7.87 -95.5)"/><path class="cls-3" d="M123.3,361.29a14.21,14.21,0,0,0,6.75-1.6,9.5,9.5,0,0,0,4.29-4.81,13.12,13.12,0,0,0,.75-6.25,9.72,9.72,0,0,0-2.31-5.71,10.9,10.9,0,0,0-5.77-3.19,27.62,27.62,0,0,0-7-.35c-4.76.17-9.51.65-14.26.82l1.36-1.36.3,11.3c0,1.89,0,3.77,0,5.66s0,3.76-.17,5.65L105.75,360c1.46.07,2.93.18,4.39.33l4.38.46c1.47.15,2.93.29,4.39.37S121.83,361.26,123.3,361.29Zm0,.31c-1.47,0-2.93,0-4.39.15s-2.92.22-4.39.37l-4.38.46c-1.46.15-2.93.26-4.39.34l-1.38.07-.09-1.54c-.11-1.89-.12-3.77-.17-5.65s0-3.77,0-5.66l.31-11.3,0-1.4,1.32,0c4.75.17,9.5.65,14.26.82a63,63,0,0,1,7.2.38,14.07,14.07,0,0,1,7,2.76,9.84,9.84,0,0,1,2.53,3.08,11.45,11.45,0,0,1,1.15,3.8c.08.64.09,1.31.12,1.93a14.43,14.43,0,0,1-.18,2,10.18,10.18,0,0,1-1.34,3.74,10.93,10.93,0,0,1-6,4.63A23.12,23.12,0,0,1,123.3,361.6Z" transform="translate(-7.87 -95.5)"/><path class="cls-4" d="M158.49,321.62h59.38v17H175.7v16h37.11V370H175.7v16.53h42.73v15.41H158.49Z" transform="translate(-7.87 -95.5)"/><path class="cls-3" d="M158.38,321.51l14.64-.35q7.35-.21,14.83-.33c10-.18,20-.42,30-.44h1.22v1.23l.1,17v1.31h-1.33c-7,.06-14.06.1-21.09,0s-14.05,0-21.08-.18l1.18-1.18-.26,16-.92-.93,18.55.31,18.56.12h.5v.5c-.07,5.13,0,10.27,0,15.4v.52h-.52c-6.19,0-12.37,0-18.56.14l-18.55.26.92-.93.25,16.53-1.17-1.17q21.36-.24,42.73-.35H220v1.53l.09,15.41v1.6h-1.62c-10,.1-20,0-30,0s-20,0-30-.14l-1.49,0,0-1.45c.16-13.55.25-27.12.55-40.54Zm.22.22.81,40.43c.3,13.35.39,26.55.55,39.77l-1.47-1.47c10-.15,20-.1,30-.14s20-.1,30,0l-1.61,1.61.09-15.41,1.52,1.53q-21.36-.09-42.73-.35h-1.2l0-1.17.25-16.53,0-.94.91,0,18.55.26c6.19.1,12.37.1,18.56.14l-.52.52c0-5.13.08-10.27,0-15.4l.5.49-18.56.13-18.55.3h-.91l0-.93-.26-16v-1.16l1.2,0c7-.14,14.05-.12,21.08-.17s14.06,0,21.09,0l-1.33,1.33.1-17,1.23,1.23c-9.75,0-19.51-.26-29.36-.44Z" transform="translate(-7.87 -95.5)"/><path class="cls-4" d="M222.59,321.62,282,323.21v15.41H239.8v16h37.11V370H239.8v16.53h42.73v15.41H222.59Z" transform="translate(-7.87 -95.5)"/><path class="cls-3" d="M222.48,321.51l14.65,0c4.9,0,9.85,0,14.84.07,10,.09,20,.11,30,.36l1.19,0v1.2l.09,15.41v1.31H282c-7,.06-14.06.1-21.09,0s-14.06,0-21.08-.18l1.18-1.18-.26,16-.92-.93,18.55.31,18.56.12h.5v.5c-.06,5.13,0,10.27,0,15.4v.52h-.52c-6.19,0-12.37,0-18.56.14l-18.55.26.92-.93.25,16.53-1.17-1.17q21.36-.24,42.73-.35H284v1.53l.09,15.41v1.6h-1.62c-10,.1-20,0-30,0s-20,0-30-.14l-1.49,0,0-1.45c.16-13.55.25-27.12.55-40.54Zm.22.22.81,40.43c.3,13.35.39,26.55.55,39.77l-1.47-1.47c10-.15,20-.1,30-.14s20-.1,30,0l-1.61,1.61.09-15.41,1.52,1.53q-21.36-.09-42.73-.35h-1.2l0-1.17.25-16.53v-.94l.92,0,18.55.26c6.19.1,12.37.1,18.56.14l-.53.52c0-5.13.09-10.27,0-15.4l.5.49-18.56.13-18.55.3h-.91l0-.93-.26-16,0-1.16,1.21,0c7-.14,14-.12,21.08-.17s14.06,0,21.09,0l-1.33,1.33.1-15.41,1.2,1.23c-9.75-.28-19.51-.78-29.35-1.23Z" transform="translate(-7.87 -95.5)"/><path class="cls-4" d="M286.69,321.62H302l37.58,50.06V323.21h17.1v78.72H341.91l-38.13-50v50H286.69Z" transform="translate(-7.87 -95.5)"/><path class="cls-3" d="M286.58,321.51l15.38-.46h.27l.18.24c6.49,8.17,12.81,16.48,19.22,24.71,3.21,4.11,6.34,8.29,9.5,12.43l9.48,12.46-2.4.8-.07-12.12.06-12.11.07-12.12.19-12.12v-1.1h1.07l17.1.28h.82v.8c-.11,6.56-.23,13.12-.24,19.68s-.13,13.12-.09,19.68l.1,19.68.26,19.68v.83h-.85l-14.73.22h-.51l-.34-.43q-19.43-24.74-38.54-49.72l2.85-1,.07,12.51,0,12.51-.05,25v1.58h-1.58c-5.7,0-11.39-.06-17.09-.12l-1.47,0v-1.44c.15-13.55.26-27.11.55-40.53Zm.22.22.8,40.42c.29,13.35.39,26.56.55,39.78l-1.46-1.46c5.7-.06,11.39-.12,17.09-.12l-1.57,1.58-.06-25,0-12.51.07-12.51,0-4.71,2.83,3.74c12.62,16.75,25.24,33.5,37.7,50.37l-.84-.42,14.73.22-.84.84.25-19.68.1-19.68c.05-6.56-.06-13.12-.08-19.68s-.13-13.12-.24-19.68l.81.81-17.1.28,1.09-1.09.19,12.12.07,12.12.06,12.11-.08,12.12,0,4-2.37-3.19-9.32-12.57c-3.1-4.2-6.24-8.37-9.29-12.6-6.12-8.45-12.33-16.84-18.37-25.34l.46.22Z" transform="translate(-7.87 -95.5)"/><path class="cls-3" d="M165.67,321.51c-.26-.44-6.26,5.47-6.26,5.47l-14.22-7c3.42-.93,16.56-6.43,18-10.63.71-2.11,5.22-9.24,15.26-8,7.53.92,12.25,9.49,8.8,19.25C183.59,330.82,170.23,329.08,165.67,321.51Z" transform="translate(-7.87 -95.5)"/><path class="cls-5" d="M148,339.47c-3.76-5.76,24.69-26.23,21-19.71-2.1,3.7,11.78,10.56,16.24.15,2.26-5.27.31-11.62-6.79-14.57-3.68-1.53-12.16,1.49-13.44,5.47s-7.52,8.2-14.12,10Z" transform="translate(-7.87 -95.5)"/><path class="cls-3" d="M139,342a15.46,15.46,0,0,0,8.17,5.43,10.71,10.71,0,0,0,9-1.36c6-4.2,6.75-13.08,3.65-18.75-2.07-3.78-5.89-8.43-11.84-7.95a26.84,26.84,0,0,0-5.06,1.32C134.31,323.13,133.32,334.66,139,342Z" transform="translate(-7.87 -95.5)"/><path class="cls-5" d="M139.69,326.41c3-5,12.83-5.73,17,1.81,2.49,4.53,2.82,10-1.45,13.6-5.45,4.58-12.33,1.82-14.33-2.2C138.54,334.91,137.31,330.4,139.69,326.41Z" transform="translate(-7.87 -95.5)"/><path class="cls-3" d="M219.22,266.63c-6.12.94-11,.72-22.7-9.79-1.91-1.7-4.32-1.71-10-.71-8.45,1.48-19.93.25-18.85-12.66.39-4.59,5.58-9.7,12.38-10.74,4.57-.7,11.62.35,19.22,9.34C214.5,260.12,228.52,259,228.66,259l6.21-.59-5.06,3.64a24.43,24.43,0,0,1-10.59,4.58Z" transform="translate(-7.87 -95.5)"/><path class="cls-7" d="M226.3,260.53s-14.62,1.88-28.91-16.41c-14.55-18.61-31.32-3-24.78,6.09,1.07,1.47,2.09,4,10.38,3.66,10.74-.46,10.25-2.73,16.32,3.45C208.87,267,220.2,264.91,226.3,260.53Z" transform="translate(-7.87 -95.5)"/></svg>